<svg width="221" height="221" viewBox="0 0 221 221" fill="none" xmlns="http://www.w3.org/2000/svg">
<path d="M110.491 220C171.243 220 220.491 170.751 220.491 110C220.491 49.2487 171.243 0 110.491 0C49.7401 0 0.491455 49.2487 0.491455 110C0.491455 170.751 49.7401 220 110.491 220Z" fill="#FFFCFC" fill-opacity="0.2"/>
<path d="M153.845 218.286C157.809 218.286 161.022 215.072 161.022 211.108C161.022 207.144 157.809 203.93 153.845 203.93C149.88 203.93 146.667 207.144 146.667 211.108C146.667 215.072 149.88 218.286 153.845 218.286Z" fill="#E8E8E8" fill-opacity="0.8"/>
<path d="M144.274 197.683C146.33 197.683 147.996 196.017 147.996 193.961C147.996 191.905 146.33 190.239 144.274 190.239C142.219 190.239 140.552 191.905 140.552 193.961C140.552 196.017 142.219 197.683 144.274 197.683Z" fill="#E8E8E8" fill-opacity="0.8"/>
<path d="M168.62 203C171.556 203 173.937 200.619 173.937 197.683C173.937 194.746 171.556 192.366 168.62 192.366C165.683 192.366 163.303 194.746 163.303 197.683C163.303 200.619 165.683 203 168.62 203Z" fill="#E8E8E8" fill-opacity="0.8"/>
<path d="M51.9185 71.2215C56.6352 71.2215 60.4588 67.3979 60.4588 62.6812C60.4588 57.9645 56.6352 54.1409 51.9185 54.1409C47.2018 54.1409 43.3782 57.9645 43.3782 62.6812C43.3782 67.3979 47.2018 71.2215 51.9185 71.2215Z" fill="#E8E8E8" fill-opacity="0.8"/>
<path d="M35.5994 61.0468C38.0562 61.0468 40.0479 59.0551 40.0479 56.5983C40.0479 54.1414 38.0562 52.1498 35.5994 52.1498C33.1425 52.1498 31.1509 54.1414 31.1509 56.5983C31.1509 59.0551 33.1425 61.0468 35.5994 61.0468Z" fill="#E8E8E8" fill-opacity="0.8"/>
<path d="M39.6851 44.0426C41.1023 44.0426 42.2511 42.8938 42.2511 41.4766C42.2511 40.0595 41.1023 38.9106 39.6851 38.9106C38.268 38.9106 37.1191 40.0595 37.1191 41.4766C37.1191 42.8938 38.268 44.0426 39.6851 44.0426Z" fill="#E8E8E8" fill-opacity="0.8"/>
<path d="M53.8903 49.4436C57.2878 49.4436 60.0419 46.6895 60.0419 43.2921C60.0419 39.8947 57.2878 37.1405 53.8903 37.1405C50.4929 37.1405 47.7388 39.8947 47.7388 43.2921C47.7388 46.6895 50.4929 49.4436 53.8903 49.4436Z" fill="#E8E8E8" fill-opacity="0.8"/>
<path d="M204.554 93.5237C209.271 93.5237 213.095 89.7001 213.095 84.9834C213.095 80.2667 209.271 76.4431 204.554 76.4431C199.838 76.4431 196.014 80.2667 196.014 84.9834C196.014 89.7001 199.838 93.5237 204.554 93.5237Z" fill="#E8E8E8" fill-opacity="0.8"/>
<path d="M187.165 90.3945C189.622 90.3945 191.614 88.4029 191.614 85.946C191.614 83.4892 189.622 81.4976 187.165 81.4976C184.708 81.4976 182.717 83.4892 182.717 85.946C182.717 88.4029 184.708 90.3945 187.165 90.3945Z" fill="#E8E8E8" fill-opacity="0.8"/>
<path d="M187.53 60.0559C189.657 60.0559 191.38 58.332 191.38 56.2056C191.38 54.0791 189.657 52.3552 187.53 52.3552C185.404 52.3552 183.68 54.0791 183.68 56.2056C183.68 58.332 185.404 60.0559 187.53 60.0559Z" fill="#E8E8E8" fill-opacity="0.8"/>
<path d="M184.852 73.0199C186.269 73.0199 187.418 71.8711 187.418 70.4539C187.418 69.0368 186.269 67.8879 184.852 67.8879C183.435 67.8879 182.286 69.0368 182.286 70.4539C182.286 71.8711 183.435 73.0199 184.852 73.0199Z" fill="#E8E8E8" fill-opacity="0.8"/>
<path d="M198.595 72.5795C201.992 72.5795 204.746 69.8254 204.746 66.4279C204.746 63.0305 201.992 60.2764 198.595 60.2764C195.197 60.2764 192.443 63.0305 192.443 66.4279C192.443 69.8254 195.197 72.5795 198.595 72.5795Z" fill="#E8E8E8" fill-opacity="0.8"/>
<path d="M143.714 105.21C154.99 105.21 164.131 96.0692 164.131 84.7929C164.131 73.5166 154.99 64.3754 143.714 64.3754C132.437 64.3754 123.296 73.5166 123.296 84.7929C123.296 96.0692 132.437 105.21 143.714 105.21Z" fill="#D5D7DD" fill-opacity="0.8"/>
<path d="M155.818 77.8859C157.587 77.8859 159.021 76.4519 159.021 74.683C159.021 72.9141 157.587 71.4801 155.818 71.4801C154.049 71.4801 152.615 72.9141 152.615 74.683C152.615 76.4519 154.049 77.8859 155.818 77.8859Z" fill="white" fill-opacity="0.8"/>
<path d="M209.588 134.558C215.365 122.8 187.473 97.2621 147.288 77.5168C107.104 57.7716 69.8449 51.2963 64.0676 63.0539C58.2903 74.8114 86.1827 100.349 126.367 120.095C166.551 139.84 203.81 146.315 209.588 134.558Z" fill="#C2CFE7"/>
<path d="M143.051 86.1403C178.187 103.405 203.924 125.098 205.975 138.136C207.524 137.35 208.787 136.099 209.588 134.558C215.365 122.801 187.473 97.2623 147.289 77.5169C107.104 57.7714 69.8456 51.2961 64.0682 63.0537C63.3375 64.629 63.1189 66.3936 63.4433 68.0996C75.0177 61.7565 107.916 68.8757 143.051 86.1403Z" fill="#ADC4E2" fill-opacity="0.8"/>
<path d="M161.668 121.55C163.972 116.862 152.85 106.679 136.828 98.8059C120.805 90.9329 105.949 88.3511 103.645 93.0392C101.341 97.7273 112.463 107.91 128.485 115.783C144.508 123.656 159.364 126.238 161.668 121.55Z" fill="#FFFEFE"/>
<path d="M135.138 102.244C149.148 109.128 159.41 117.778 160.228 122.977C160.845 122.663 161.349 122.164 161.668 121.55C163.972 116.862 152.85 106.679 136.828 98.8059C120.805 90.9327 105.949 88.3508 103.645 93.0389C103.354 93.667 103.267 94.3707 103.396 95.0509C108.011 92.5217 121.129 95.3603 135.138 102.244Z" fill="#E2F0FF"/>
<path d="M127.465 220.136H0L103.396 95.0507L160.824 123.269L127.465 220.136Z" fill="url(#paint0_linear_430_68)"/>
<defs>
<linearGradient id="paint0_linear_430_68" x1="149.871" y1="116.807" x2="46.1138" y2="239.683" gradientUnits="userSpaceOnUse">
<stop stop-color="white"/>
<stop offset="1" stop-color="white" stop-opacity="0"/>
</linearGradient>
</defs>
</svg>
