<svg width="406" height="512" viewBox="0 0 406 512" fill="none" xmlns="http://www.w3.org/2000/svg">
<g clip-path="url(#clip0_428_3)">
<path fill-rule="evenodd" clip-rule="evenodd" d="M208.14 262.32L406 64.4601C404.84 56.2701 399.5 52.0001 391.65 50.1101L215.46 15.3801L161.43 69.4201L163.56 81.2101L51.67 195.32C37.5 195.54 24.69 201.37 15.37 210.68C5.88 220.18 0 233.31 0 247.8C0 262.29 5.88 275.41 15.37 284.91C21.7351 291.284 29.636 295.91 38.31 298.34L132.83 447.88H93.88C69.79 447.88 50.05 467.62 50.05 491.72V511.4H299.69V491.72C299.69 467.66 279.95 447.88 255.85 447.88H193.22L89.97 284.53C99.24 275.06 104.96 262.09 104.96 247.8C104.96 238.11 102.33 229.03 97.75 221.23L174.72 142.75L193.79 247.97C196.26 255.28 200.13 261.06 208.14 262.32ZM352.11 210.52C370.37 192.25 370.37 162.37 352.11 144.11L349.97 141.97L283.56 208.38L285.7 210.52C303.97 228.78 333.85 228.78 352.11 210.52ZM153.7 10.9401C168.29 -3.64994 192.16 -3.64994 206.75 10.9401L208.46 12.6501L155.41 65.7001L153.7 63.9901C139.11 49.4001 139.11 25.5301 153.7 10.9401Z" fill="white"/>
</g>
<defs>
<clipPath id="clip0_428_3">
<rect width="406" height="511.4" fill="white"/>
</clipPath>
</defs>
</svg>
